PathFileType	3	(X/Y/Z)	RCH0000002 BBF 08.c3d
DataRate	CameraRate	NumFrames	NumMarkers	Units	OrigDataRate	OrigDataStartFrame	OrigNumFrames
100.0	100.0	5	23	mm	100.0	177	516
Frame#	Time	MAN			LASI			RASI			LPAT			LKNE			LANK			LMED			LTOE			RKNE			RANK			RMED			RHEE			RTOE			LHEE			RPAT			RPSI			T2			LPSI			T10			RTHI			LTHI			RTIB			LTIB			
		X1	Y1	Z1	X2	Y2	Z2	X3	Y3	Z3	X4	Y4	Z4	X5	Y5	Z5	X6	Y6	Z6	X7	Y7	Z7	X8	Y8	Z8	X9	Y9	Z9	X10	Y10	Z10	X11	Y11	Z11	X12	Y12	Z12	X13	Y13	Z13	X14	Y14	Z14	X15	Y15	Z15	X16	Y16	Z16	X17	Y17	Z17	X18	Y18	Z18	X19	Y19	Z19	X20	Y20	Z20	X21	Y21	Z21	X22	Y22	Z22	X23	Y23	Z23	

177	1.760	-1183.32061	49.44892	939.42008	-1204.17616	81.52169	644.77712	-1202.06948	-95.13498	641.01655	-1182.83698	41.00522	382.49261	-1220.71006	101.29586	340.47719	-1272.47494	107.24088	69.36205	-1276.35746	38.26969	87.43452	-1226.29463	67.06331	65.78911	-1261.90609	-91.85516	324.45388	-1449.77413	-83.18879	128.89930	-1443.50781	-15.98825	144.64010	-1458.77121	-51.95376	183.68363	-1427.22002	-47.10111	87.57486	-1315.55171	71.07480	100.72199	-1198.02556	-49.99840	344.19988	-1310.85430	-43.28267	698.38860	-1311.06677	39.76855	978.98724	-1312.61085	28.25414	699.18283	-1296.94398	3.63447	787.91168	-1243.72792	-165.56069	431.84271	-1230.67532	171.61848	464.70636	-1346.68893	-154.37187	245.82837	-1238.54997	167.63157	225.60041	
178	1.770	-1173.56979	48.03542	941.39207	-1197.15286	82.68351	646.41457	-1191.88808	-93.97065	641.90460	-1181.37363	42.66179	382.68599	-1220.59633	102.71815	341.34031	-1273.05316	106.71672	70.07361	-1275.78947	37.90668	88.35473	-1226.25685	67.28805	66.26397	-1243.31534	-92.52872	326.19266	-1431.20755	-85.68963	131.64210	-1424.77389	-18.23283	146.30815	-1440.69686	-53.58356	185.69675	-1407.33083	-50.59484	90.47798	-1315.54459	70.16110	101.74227	-1179.82915	-50.29191	347.38647	-1301.40231	-44.23665	699.99925	-1301.25404	36.63166	980.82729	-1304.19522	27.23444	701.41883	-1287.46283	1.99518	789.81604	-1228.42039	-165.87101	434.32352	-1228.32194	172.75696	465.90544	-1327.92875	-155.72108	248.88248	-1240.32097	168.45628	226.04768	
179	1.780	-1163.90526	46.62653	943.31565	-1190.27564	83.78728	647.89895	-1181.87960	-92.78078	643.00669	-1179.79918	43.88255	382.86113	-1220.32609	103.67922	342.15827	-1273.64140	105.84832	70.84632	-1275.10777	37.16644	89.26321	-1226.16970	67.24901	66.74056	-1224.61647	-93.13981	328.42242	-1411.74486	-88.19014	134.03734	-1405.35987	-20.49024	147.70778	-1422.07644	-55.29030	187.30941	-1386.34015	-54.01376	93.29182	-1315.45732	68.81807	102.81349	-1161.66158	-50.41146	351.18174	-1292.09502	-45.07659	701.58109	-1291.49210	33.52046	982.65503	-1295.92575	26.27747	703.45978	-1278.19224	0.56426	791.67124	-1213.06936	-166.14992	437.18873	-1225.94289	173.51484	466.97809	-1308.73595	-157.02161	251.99563	-1242.07523	168.82789	226.56483	
180	1.790	-1154.31162	45.24321	945.13494	-1183.53509	84.81579	649.22475	-1172.00789	-91.58564	644.24470	-1178.03897	44.78875	382.99824	-1219.84369	104.27909	342.92713	-1274.17494	104.80885	71.66145	-1274.32285	36.22045	90.16650	-1226.02115	67.05940	67.20356	-1205.80967	-93.69820	331.08324	-1391.41921	-90.65287	136.03930	-1385.28432	-22.72780	148.81794	-1402.88386	-57.05647	188.50001	-1364.36142	-57.29147	95.94917	-1315.25257	67.26005	103.93387	-1143.52598	-50.39198	355.49700	-1282.91427	-45.87274	703.07596	-1281.77461	30.49983	984.40647	-1287.79671	25.31362	705.26775	-1269.10925	-0.68526	793.43041	-1197.62483	-166.40599	440.37171	-1223.54424	173.95392	467.94259	-1289.12771	-158.26758	255.09018	-1243.66440	168.87438	227.14678	
181	1.800	-1144.77307	43.89942	946.80102	-1176.91858	85.75528	650.39468	-1162.23890	-90.40258	645.53920	-1176.04461	45.50217	383.08172	-1219.11709	104.62634	343.64846	-1274.59852	103.75702	72.49857	-1273.44612	35.23126	91.06974	-1225.79940	66.82759	67.64135	-1186.89888	-94.21330	334.11114	-1370.27471	-93.04354	137.62677	-1364.56648	-24.91313	149.63028	-1383.10249	-58.85824	189.26287	-1341.50935	-60.37525	98.40241	-1314.90208	65.68403	105.09454	-1125.43071	-50.26691	360.23987	-1273.84184	-46.68841	704.43139	-1272.09515	27.62134	986.02529	-1279.79869	24.28174	706.81713	-1260.18764	-1.78820	795.05402	-1182.04014	-166.64352	443.80793	-1221.13316	174.14477	468.82467	-1269.12812	-159.45516	258.10235	-1244.97207	168.72798	227.78614	
